HIERARCHY
ROOT root
{
	OFFSET 0.000000 0.000000 0.000000
	CHANNELS 6 Xposition Yposition Zposition Zrotation Yrotation Xrotation
	JOINT lhip
	{
		OFFSET 0.058581 -0.082280 -0.017664
		CHANNELS 3 Zrotation Yrotation Xrotation
		JOINT lknee
		{
			OFFSET 0.043451 -0.386469 0.008037
			CHANNELS 3 Zrotation Yrotation Xrotation
			JOINT lankle
			{
				OFFSET -0.014790 -0.426874 -0.037428
				CHANNELS 3 Zrotation Yrotation Xrotation
				JOINT ltoe
				{
					OFFSET 0.041054 -0.060286 0.122042
					CHANNELS 3 Zrotation Yrotation Xrotation
					End Site
					{
						OFFSET 0.000000 0.000000 0.000000
					}
				}
			}
		}
	}
	JOINT rhip
	{
		OFFSET -0.060310 -0.090513 -0.013543
		CHANNELS 3 Zrotation Yrotation Xrotation
		JOINT rknee
		{
			OFFSET -0.043257 -0.383688 -0.004843
			CHANNELS 3 Zrotation Yrotation Xrotation
			JOINT rankle
			{
				OFFSET 0.019056 -0.420046 -0.034562
				CHANNELS 3 Zrotation Yrotation Xrotation
				JOINT rtoe
				{
					OFFSET -0.034840 -0.062106 0.130323
					CHANNELS 3 Zrotation Yrotation Xrotation
					End Site
					{
						OFFSET 0.000000 0.000000 0.000000
					}
				}
			}
		}
	}
	JOINT lowerback
	{
		OFFSET 0.004439 0.124404 -0.038385
		CHANNELS 3 Zrotation Yrotation Xrotation
		JOINT upperback
		{
			OFFSET 0.004488 0.137956 0.026820
			CHANNELS 3 Zrotation Yrotation Xrotation
			JOINT chest
			{
				OFFSET -0.002265 0.056032 0.002855
				CHANNELS 3 Zrotation Yrotation Xrotation
				JOINT lowerneck
				{
					OFFSET -0.013390 0.211636 -0.033468
					CHANNELS 3 Zrotation Yrotation Xrotation
					JOINT upperneck
					{
						OFFSET 0.010113 0.088937 0.050410
						CHANNELS 3 Zrotation Yrotation Xrotation
						End Site
						{
							OFFSET 0.000000 0.000000 0.000000
						}
					}
				}
				JOINT lclavicle
				{
					OFFSET 0.071702 0.114000 -0.018898
					CHANNELS 3 Zrotation Yrotation Xrotation
					JOINT lshoulder
					{
						OFFSET 0.122921 0.045205 -0.019046
						CHANNELS 3 Zrotation Yrotation Xrotation
						JOINT lelbow
						{
							OFFSET 0.255332 -0.015649 -0.022946
							CHANNELS 3 Zrotation Yrotation Xrotation
							JOINT lwrist
							{
								OFFSET 0.265709 0.012698 -0.007375
								CHANNELS 3 Zrotation Yrotation Xrotation
								End Site
								{
									OFFSET 0.000000 0.000000 0.000000
								}
							}
						}
					}
				}
				JOINT rclavicle
				{
					OFFSET -0.082954 0.112472 -0.023707
					CHANNELS 3 Zrotation Yrotation Xrotation
					JOINT rshoulder
					{
						OFFSET -0.113228 0.046853 -0.008472
						CHANNELS 3 Zrotation Yrotation Xrotation
						JOINT relbow
						{
							OFFSET -0.260127 -0.014369 -0.031269
							CHANNELS 3 Zrotation Yrotation Xrotation
							JOINT rwrist
							{
								OFFSET -0.269108 0.006794 -0.006027
								CHANNELS 3 Zrotation Yrotation Xrotation
								End Site
								{
									OFFSET 0.000000 0.000000 0.000000
								}
							}
						}
					}
				}
			}
		}
	}
}
MOTION
Frames: 5
Frame Time: 0.033333
0.036060 0.425188 1.023767 -179.308836 -0.847878 85.206200 5.605208 2.040295 4.658161 -4.660837 -0.283053 1.840135 -3.510280 5.264315 -5.222987 0.000000 -0.000000 0.000000 -5.171149 -3.082337 2.909348 2.953544 -2.220790 6.903639 7.091554 -0.336288 -7.473083 0.000000 -0.000000 0.000000 0.294230 -0.197897 3.110494 2.153362 -3.282583 4.557107 0.372213 0.751796 3.092214 3.489513 3.293935 -5.978746 2.688201 -3.331569 -5.626122 -17.359236 3.371751 -3.525604 -62.039553 -16.634127 18.876078 -2.348825 -27.040131 17.134107 -15.583669 -22.015239 -23.413700 20.645365 -1.734904 -0.266124 57.165763 13.639267 14.326504 -6.072015 11.518199 3.646552 18.825833 9.213369 -7.570359 
0.036955 0.426915 1.023577 -179.358238 -0.854456 85.239908 5.698168 2.229812 4.778550 -4.675498 -0.688500 1.792048 -3.487586 5.477335 -5.278370 0.000000 -0.000000 0.000000 -5.084097 -2.864279 3.032511 3.035682 -1.752242 6.772194 6.894914 -0.911063 -7.776059 0.000000 -0.000000 0.000000 0.715892 -0.191224 3.253095 2.054039 -3.374192 4.390327 0.439945 0.320630 3.050011 3.668771 2.775620 -6.615887 2.849258 -2.566843 -5.890867 -18.672442 3.559323 -3.266425 -61.805041 -15.062782 16.590592 1.056008 -20.342397 16.618294 -15.442345 -19.239552 -15.377115 21.083614 -3.080229 0.032301 55.505561 10.129877 13.448863 -4.835142 15.748719 5.231534 18.231787 10.765770 -9.368353 
0.037678 0.428716 1.023495 -179.858242 -0.927388 85.301425 5.684210 2.742373 4.869290 -4.641463 -1.065690 1.847743 -3.493194 5.860320 -5.342505 0.000000 -0.000000 0.000000 -5.120343 -2.809279 2.920295 3.109695 -1.115808 6.890016 7.068920 -1.193680 -7.819592 0.000000 -0.000000 0.000000 0.959108 -0.131652 3.431798 2.119937 -3.335527 4.260747 0.551557 -0.014098 3.156619 3.554547 2.494111 -7.245255 2.862020 -1.826096 -6.814526 -20.412580 4.553375 -3.192678 -60.675453 -13.261680 14.341103 2.957548 -15.206833 14.631166 -12.597150 -16.722792 -11.239902 21.732410 -4.767877 -0.030654 53.923283 7.127514 12.957324 -4.090754 20.264263 5.692152 16.674466 11.568240 -11.173996 
0.038471 0.430069 1.023408 179.463885 -0.904172 85.496430 5.692750 2.819748 4.836749 -4.551081 -1.059352 1.842952 -3.575517 6.565339 -5.374127 0.000000 -0.000000 0.000000 -4.997575 -2.313893 2.594957 3.276893 -0.369553 6.950331 6.657506 -1.697212 -7.954498 0.000000 -0.000000 0.000000 1.258005 -0.312429 3.616375 2.189914 -3.337324 3.919008 0.652234 -0.256544 3.344893 3.528402 2.419241 -7.560134 2.877234 -0.771974 -7.734557 -21.906779 6.417251 -2.824592 -59.176165 -10.673060 11.744401 3.966019 -10.978060 10.954540 -10.035446 -15.882176 -11.420246 22.158078 -6.760915 -0.214774 52.824298 4.709862 12.911974 -3.688363 24.019610 6.689620 15.201998 12.294616 -12.018027 
0.038892 0.431369 1.023539 178.720530 -0.929066 85.555339 5.620890 2.715402 5.105127 -4.504862 -0.810604 1.659887 -3.584869 7.209363 -5.542988 0.000000 -0.000000 0.000000 -4.991119 -2.050827 2.505722 3.364628 0.244109 6.964613 6.862038 -1.910188 -7.880862 0.000000 -0.000000 0.000000 1.285540 -0.338240 3.572288 2.264897 -3.252344 3.825478 0.774873 -0.325741 3.494850 3.608999 2.442758 -7.562373 2.808600 -0.229288 -7.998441 -22.394629 7.774357 -2.517482 -58.508821 -9.132142 10.409889 4.062090 -9.263478 8.576649 -9.688224 -16.179343 -13.101520 22.357634 -7.794415 -0.343830 52.208483 3.919267 13.016310 -3.513479 25.195395 7.295226 14.744957 12.638574 -11.375681 
